<svg viewBox="110 110 808 808" fill="none" xmlns="http://www.w3.org/2000/svg">
  <path d="M896.712 554.738L855.498 428.184C855.517 428.241 855.524 428.3 855.542 428.357C855.521 428.291 855.51 428.225 855.492 428.159C855.489 428.154 855.489 428.152 855.489 428.147V428.143L773.675 177.002C769.199 163.772 756.885 154.893 742.766 155.002C728.607 155.075 716.63 163.783 712.251 177.195L634.592 415.575H389.552L311.747 177.179C307.372 163.779 295.393 155.073 281.236 155C281.179 155 281.124 155 281.065 155C267.124 155 254.785 163.824 250.261 177.202L168.67 428.118L168.659 428.15V428.156C168.638 428.22 168.629 428.284 168.609 428.348C168.627 428.291 168.634 428.232 168.652 428.175L127.288 554.738C121.066 573.844 127.818 594.607 144.094 606.412L501.256 865.152C501.896 865.623 502.617 866.034 503.314 866.411C504.161 866.88 505.046 867.261 505.96 867.581C506.998 867.926 508.027 868.237 509.114 868.392C510.052 868.533 511.009 868.617 511.959 868.617C513.018 868.617 514.08 868.506 515.124 868.332C516.028 868.188 516.945 867.966 517.809 867.659C518.567 867.384 519.317 867.09 520.04 866.73C520.967 866.268 521.864 865.764 522.698 865.15L879.915 606.405C896.182 594.607 902.934 573.844 896.712 554.738ZM742.992 200.529L813.047 415.575H672.937L742.992 200.529ZM800.779 451.939L772.193 488.459L561.356 757.806L661.089 451.939H800.779ZM462.649 757.825L223.356 451.939H363.055L462.649 757.825ZM281.014 200.527L351.2 415.575H211.089L281.014 200.527ZM165.54 576.999C162.078 574.488 160.644 570.055 161.971 565.985L192.719 471.901L418.024 759.905L165.54 576.999ZM511.989 791.597L453.385 611.605L401.401 451.939H622.739L511.989 791.597ZM858.469 576.992L606.022 759.848L831.402 471.923L862.027 565.966C863.356 570.055 861.924 574.488 858.469 576.992Z" fill="black"/>
</svg>
